<!DOCTYPE svg PUBLIC "-//W3C//DTD SVG 1.1//EN" "http://www.w3.org/Graphics/SVG/1.1/DTD/svg11.dtd">
<!-- Uploaded to: SVG Repo, www.svgrepo.com, Transformed by: SVG Repo Mixer Tools -->
<svg width="800px" height="800px" viewBox="0 0 64 64" id="Layer_1" data-name="Layer 1" xmlns="http://www.w3.org/2000/svg" fill="#d4d4d4" stroke="#d4d4d4">
<g id="SVGRepo_bgCarrier" stroke-width="0"/>
<g id="SVGRepo_tracerCarrier" stroke-linecap="round" stroke-linejoin="round"/>
<g id="SVGRepo_iconCarrier">
<defs>
<style>.cls-1,.cls-2{fill:none;}.cls-2{stroke:#dbdbdb;stroke-linecap:round;stroke-linejoin:round;stroke-width:2px;}</style>
</defs>
<title>weather, forecast, direction, compass</title>
<line class="cls-1" x1="33.74" y1="37.87" x2="33.45" y2="39.16"/>
<polyline class="cls-2" points="32 20.86 30.47 27.68 30.17 28.99 29.95 29.95 28.99 30.17 27.42 30.52 26.41 30.75 25.24 31.01 20.86 32 25 32.93 28.99 33.83 29.95 34.04 30.17 35.01 31.07 39.01 32 43.14 32.99 38.75 33.25 37.59 33.47 36.6 33.83 35 34.04 34.04 35 33.83 36.27 33.54 43.14 32 35.01 30.17 34.28 30.01 34.04 29.95 34 29.77 33.83 28.99 33.38 26.98"/>
<polygon class="cls-2" points="30.17 28.99 29.95 29.95 28.99 30.17 28.09 28.74 26.98 26.98 28.29 27.81 30.17 28.99"/>
<polygon class="cls-2" points="30.17 35.01 26.98 37.02 28.99 33.83 29.95 34.04 30.17 35.01"/>
<polygon class="cls-2" points="37.02 37.02 35.26 35.91 33.83 35 34.04 34.04 35 33.83 36.2 35.72 37.02 37.02"/>
<polygon class="cls-2" points="37.02 26.98 35.01 30.17 34.28 30.01 34.04 29.95 34 29.77 33.83 28.99 37.02 26.98"/>
<path class="cls-2" d="M38.42,14.13A19.08,19.08,0,1,1,32,13a19.19,19.19,0,0,1,2,.11"/>
<circle cx="32.03" cy="16.99" r="1"/>
<circle cx="47.01" cy="32.03" r="1"/>
<circle cx="31.97" cy="47.01" r="1"/>
<circle cx="16.99" cy="31.97" r="1"/>
</g>
</svg>